# xmcd CD database file
#
# Track frame offsets:
#	150
#	14825
#	29227
#	45380
#	57447
#	75877
#	91437
#	108067
#	119545
#	139547
#	159897
#	175755
#
# Disc length: 2588 seconds
#
# Revision: 0
# Processed by: cddbd v1.5.1PL2 Copyright (c) Steve Scherf et al.
# Submitted via: CDex 1.51
#
DISCID=910a1a0c
DTITLE=Sound of Joy - A Cappella Spirituals and Gospel
DYEAR=1900
DGENRE=Jazz
TTITLE0=COME BY HERE
TTITLE1=AMAZING GRACE
TTITLE2=WADE IN THE WATER
TTITLE3=SWING DOWN SEET CHARIOT
TTITLE4=OH! HAPPY DAY
TTITLE5=JESUS KNOWS
TTITLE6=DOWN BY THE RIVERSIDE
TTITLE7=JOSHUA FITS THE BATTLE OF JERICHO
TTITLE8=THIS LITTLE LIGHT OF MINE
TTITLE9=A CHANGE IN MY LIFE
TTITLE10=STANDING RIGHT IN FRONT OF YOU
TTITLE11=A KUMCE MANI YESU
EXTD=
EXTT0=
EXTT1=
EXTT2=
EXTT3=
EXTT4=
EXTT5=
EXTT6=
EXTT7=
EXTT8=
EXTT9=
EXTT10=
EXTT11=
PLAYORDER=
